<svg xmlns="http://www.w3.org/2000/svg" viewBox="0 0 128 128" role="img" aria-labelledby="title desc">
  <title id="title">PatchDrive icon</title>
  <desc id="desc">A patched wheel and lightning bolt emblem for the PatchDrive game.</desc>
  <rect width="128" height="128" rx="24" fill="#101311"/>
  <circle cx="64" cy="64" r="46" fill="#1a201c" stroke="#3b453e" stroke-width="6"/>
  <circle cx="64" cy="64" r="25" fill="#58c4b8" stroke="#eef4ec" stroke-width="6"/>
  <circle cx="64" cy="64" r="8" fill="#101311"/>
  <path d="M61 17h8l4 18-6 8h-6l-6-8 6-18Z" fill="#f5b84b"/>
  <path d="M111 61v8l-18 4-8-6v-6l8-6 18 6Z" fill="#f5b84b"/>
  <path d="M67 111h-8l-4-18 6-8h6l6 8-6 18Z" fill="#f5b84b"/>
  <path d="M17 67v-8l18-4 8 6v6l-8 6-18-6Z" fill="#f5b84b"/>
  <path d="M52 77 62 59H48l27-33-9 24h16L52 77Z" fill="#f46a55" stroke="#101311" stroke-width="4" stroke-linejoin="round"/>
  <path d="M39 87c10 10 27 15 43 7" fill="none" stroke="#eef4ec" stroke-width="6" stroke-linecap="round" stroke-dasharray="11 9"/>
</svg>
